<svg width="24" height="24" viewBox="0 0 24 24" fill="none" xmlns="http://www.w3.org/2000/svg">
<path d="M11.7562 0.13125C11.5125 0.375 11.625 1.3125 11.8875 1.3125C12.2812 1.3125 12.4312 0.99375 12.3 0.45C12.1875 0 11.9812 -0.1125 11.7562 0.13125Z" fill="#585B71"/>
<path d="M14.456 1.57499C14.156 1.89374 14.0998 2.06249 14.2498 2.15624C14.5685 2.34374 15.3185 1.55624 15.0748 1.31249C14.9435 1.18124 14.756 1.25624 14.456 1.57499Z" fill="#585B71"/>
<path d="M8.8125 1.55625C8.8125 1.81875 9.39375 2.4375 9.61875 2.4375C9.84375 2.4375 9.76875 1.78125 9.525 1.5375C9.225 1.2375 8.8125 1.25625 8.8125 1.55625Z" fill="#585B71"/>
<path d="M11.625 3.13126C11.5125 3.41251 11.3813 3.76876 11.3438 3.88126C11.2875 4.03126 10.9313 4.12501 10.4063 4.12501C9.9375 4.12501 9.5625 4.20001 9.5625 4.29376C9.5625 4.38751 9.84375 4.66876 10.2 4.95001C10.8188 5.41876 10.8375 5.45626 10.65 6.18751C10.5375 6.60001 10.5 6.99376 10.5563 7.05001C10.6125 7.12501 10.9125 6.99376 11.2125 6.76876C11.925 6.28126 12.075 6.28126 12.75 6.78751C13.4438 7.29376 13.6313 7.12501 13.3313 6.22501C13.125 5.55001 13.1438 5.51251 13.7812 4.95001C14.1375 4.63126 14.4375 4.31251 14.4375 4.25626C14.4375 4.20001 14.0438 4.12501 13.5563 4.08751C12.75 4.03126 12.675 3.97501 12.4688 3.39376C12.1875 2.55001 11.8688 2.45626 11.625 3.13126Z" fill="#585B71"/>
<path d="M7.27478 4.16251C7.19978 4.96876 7.34978 5.88751 7.59353 5.88751C7.70603 5.90626 7.79978 5.38126 7.83728 4.72501C7.87478 3.80626 7.83728 3.56251 7.63103 3.56251C7.46228 3.56251 7.33103 3.80626 7.27478 4.16251Z" fill="#585B71"/>
<path d="M16.1624 4.725C16.1999 5.38125 16.3124 5.90625 16.4061 5.90625C16.5186 5.90625 16.6124 5.38125 16.6499 4.725C16.6874 3.76875 16.6499 3.5625 16.4061 3.5625C16.1624 3.5625 16.1249 3.76875 16.1624 4.725Z" fill="#585B71"/>
<path d="M7.6875 6.65626C7.6875 7.35001 9.09375 8.70001 10.3125 9.20626C12.1688 9.95626 14.9063 9.07501 15.9563 7.38751C16.3875 6.69376 16.3875 6.56251 16.0688 6.56251C15.9188 6.56251 15.5438 6.90001 15.2063 7.31251C14.3813 8.34376 13.2938 8.86876 12 8.86876C10.65 8.85001 9.76875 8.45626 8.85 7.40626C8.2125 6.67501 7.6875 6.33751 7.6875 6.65626Z" fill="#585B71"/>
<path d="M2.43739 11.175C1.61239 11.8875 1.25614 12.675 1.36864 13.5375C1.79989 16.7063 6.29989 16.725 6.67489 13.5563C6.95614 11.3813 4.08739 9.7875 2.43739 11.175ZM5.06239 11.5688C5.79364 12.075 5.98114 12.4125 5.99989 13.2563C5.99989 14.8125 4.42489 15.825 3.09364 15.0938C1.21864 14.1 1.91239 11.2875 4.03114 11.25C4.34989 11.25 4.81864 11.4 5.06239 11.5688Z" fill="#585B71"/>
<path d="M3.82495 12.3938C3.7312 12.5625 3.48745 12.75 3.29995 12.825C3.0187 12.9188 2.9812 12.9938 3.14995 13.1625C3.2812 13.2938 3.37495 13.5938 3.37495 13.8375C3.37495 14.2125 3.4312 14.25 3.63745 14.0813C3.8437 13.9125 4.01245 13.8938 4.31245 14.0625C4.6687 14.25 4.7062 14.2313 4.64995 13.9125C4.61245 13.725 4.7062 13.425 4.8562 13.2563C5.06245 12.975 5.0437 12.9188 4.6312 12.7688C4.3687 12.675 4.12495 12.4688 4.08745 12.3375C4.0312 12.1688 3.9562 12.1688 3.82495 12.3938Z" fill="#585B71"/>
<path d="M8.71855 10.9312C8.6623 11.0437 8.64355 14.025 8.6623 17.5312L8.71855 23.9062H11.9061H15.0936L15.1498 17.2875L15.1873 10.6875H11.9998C9.5998 10.6875 8.7748 10.7437 8.71855 10.9312Z" fill="#585B71"/>
<path d="M18.4312 11.0812C16.7812 12.1312 16.9312 14.7937 18.6937 15.6562C21.0374 16.8 23.4374 14.3625 22.2374 12.0375C21.5812 10.7437 19.6874 10.275 18.4312 11.0812ZM21.2999 11.8875C21.8062 12.3937 21.9374 12.675 21.9374 13.275C21.9374 15.4875 18.8999 16.1437 18.0562 14.1187C17.4749 12.7125 18.4874 11.25 20.0437 11.25C20.4937 11.25 20.8312 11.4187 21.2999 11.8875Z" fill="#585B71"/>
<path d="M19.7624 12.3938C19.6687 12.5625 19.4249 12.75 19.2374 12.825C18.9562 12.9188 18.9187 12.9938 19.0874 13.1625C19.2187 13.2938 19.3124 13.5938 19.3124 13.8375C19.3124 14.1938 19.3687 14.25 19.5562 14.1C19.6874 13.9875 19.9874 13.9313 20.2124 14.0063C20.5499 14.0813 20.6062 14.0438 20.5124 13.8C20.4374 13.5938 20.5312 13.3875 20.7374 13.2188C21.0749 12.975 21.0749 12.9563 20.6062 12.7688C20.3249 12.675 20.0624 12.4688 20.0249 12.3375C19.9687 12.1688 19.8937 12.1688 19.7624 12.3938Z" fill="#585B71"/>
<path d="M0.824885 17.3062C0.787385 17.4375 0.768635 18.975 0.787385 20.7187L0.843635 23.9062L4.01238 23.9625C6.43113 24 7.21863 23.9437 7.34988 23.775C7.51863 23.4937 7.55613 17.7937 7.38738 17.3625C7.29363 17.1 6.82488 17.0625 4.10613 17.0625C1.68738 17.0625 0.899885 17.1187 0.824885 17.3062Z" fill="#585B71"/>
<path d="M16.6123 17.3625C16.4435 17.7937 16.481 23.4937 16.6498 23.775C16.781 23.9437 17.5685 24 19.9873 23.9625L23.156 23.9062V20.5312V17.1562L19.9498 17.1C17.1373 17.0625 16.7248 17.1 16.6123 17.3625Z" fill="#585B71"/>
</svg>
