<svg width="24" height="24" viewBox="0 0 24 24" fill="none" xmlns="http://www.w3.org/2000/svg">
<g clip-path="url(#clip0_39_63)">
<path fill-rule="evenodd" clip-rule="evenodd" d="M19.1894 21.0782C18.8809 20.3943 18.7773 20.1302 18.3223 19.587C19.1777 19.9528 19.9043 19.9982 20.5508 20.4527C20.9629 20.7384 21.5742 20.9548 21.7402 21.299C22.1504 22.1517 22.0898 23.0975 22.3086 24.0043H15.668V23.3204V23.1256V23.0737V22.9676V22.9135V22.8378V22.7599V22.7101V22.5629V22.4937V22.4244L15.6582 22.3313V22.2859L16.2109 22.8226L18.3086 21.0544L19.1992 21.0782H19.1894ZM5.73437 2.54664e-10H12.5C12.716 -4.0299e-06 12.9298 0.0478259 13.1289 0.14068C13.3318 0.231457 13.5164 0.366098 13.6719 0.536748C13.8243 0.706269 13.9457 0.906918 14.0293 1.1276C14.1127 1.34835 14.1558 1.5852 14.1562 1.82451V5.88692C14.1563 6.12627 14.1131 6.36321 14.0293 6.58382C13.9457 6.80451 13.8243 7.00516 13.6719 7.17468C13.5173 7.34566 13.3343 7.48166 13.1328 7.57508C12.9333 7.6662 12.7197 7.71326 12.5039 7.71359H11.3281L9.24023 9.41474L8.39844 7.71143H5.73437C5.51873 7.71178 5.30509 7.66546 5.10547 7.57508C4.90574 7.48246 4.72402 7.34798 4.57031 7.17901C4.41785 7.00949 4.29647 6.80884 4.21289 6.58815C4.1291 6.36754 4.08593 6.1306 4.08594 5.89125V1.82451C4.08749 1.3412 4.26164 0.878214 4.57031 0.536748C4.72348 0.367048 4.90533 0.232461 5.10547 0.14068C5.30455 0.0478259 5.51837 -4.0299e-06 5.73437 2.54665e-10V2.54664e-10ZM11.3379 3.1231C11.4603 3.1231 11.58 3.16333 11.6819 3.23872C11.7837 3.31411 11.863 3.42126 11.9099 3.54663C11.9568 3.67199 11.969 3.80994 11.9451 3.94303C11.9212 4.07612 11.8623 4.19837 11.7757 4.29432C11.6891 4.39027 11.5788 4.45561 11.4587 4.48208C11.3386 4.50856 11.2141 4.49497 11.101 4.44304C10.9878 4.39111 10.8911 4.30318 10.8231 4.19035C10.7551 4.07752 10.7187 3.94488 10.7187 3.80918C10.7187 3.62722 10.784 3.45271 10.9001 3.32405C11.0162 3.19538 11.1737 3.1231 11.3379 3.1231ZM6.90039 3.1231C7.02284 3.1231 7.14255 3.16333 7.24436 3.23872C7.34618 3.31411 7.42554 3.42126 7.4724 3.54663C7.51926 3.67199 7.53152 3.80994 7.50763 3.94303C7.48374 4.07612 7.42478 4.19837 7.33819 4.29432C7.2516 4.39027 7.14128 4.45561 7.02118 4.48208C6.90108 4.50856 6.77659 4.49497 6.66345 4.44304C6.55032 4.39111 6.45362 4.30318 6.38559 4.19035C6.31756 4.07752 6.28125 3.94488 6.28125 3.80918C6.28125 3.62722 6.34648 3.45271 6.46259 3.32405C6.5787 3.19538 6.73618 3.1231 6.90039 3.1231ZM9.11914 3.1231C9.24159 3.1231 9.3613 3.16333 9.46311 3.23872C9.56493 3.31411 9.64429 3.42126 9.69115 3.54663C9.73801 3.67199 9.75027 3.80994 9.72638 3.94303C9.70249 4.07612 9.64353 4.19837 9.55694 4.29432C9.47035 4.39027 9.36003 4.45561 9.23993 4.48208C9.11983 4.50856 8.99534 4.49497 8.8822 4.44304C8.76907 4.39111 8.67237 4.30318 8.60434 4.19035C8.53631 4.07752 8.5 3.94488 8.5 3.80918C8.5 3.62722 8.56523 3.45271 8.68134 3.32405C8.79745 3.19538 8.95493 3.1231 9.11914 3.1231ZM12.2871 0.742358H5.73437C5.47537 0.742358 5.22698 0.85637 5.04384 1.05931C4.8607 1.26226 4.75781 1.53751 4.75781 1.82451V5.88692C4.75781 6.02903 4.78307 6.16975 4.83215 6.30104C4.88122 6.43233 4.95316 6.55163 5.04384 6.65212C5.13452 6.7526 5.24218 6.83231 5.36066 6.8867C5.47914 6.94108 5.60613 6.96907 5.73437 6.96907H8.69726C8.76327 6.97407 8.82479 7.00786 8.86836 7.06303C8.91192 7.1182 8.93397 7.19026 8.92969 7.26342L9.45508 8.3196L11.0176 7.04699C11.0407 7.02149 11.0681 7.00129 11.0983 6.98755C11.1284 6.97381 11.1607 6.96679 11.1934 6.96691H12.5C12.759 6.96691 13.0074 6.85289 13.1905 6.64995C13.3737 6.44701 13.4766 6.17176 13.4766 5.88475V1.82451C13.4766 1.53751 13.3737 1.26226 13.1905 1.05931C13.0074 0.85637 12.759 0.742358 12.5 0.742358H12.2871ZM0 24C0.292969 19.7883 1.00977 21.366 4.25195 19.1173C5.14648 21.6907 9.44336 21.8638 10.3867 19.1173C13.1855 21.0998 14.582 19.6021 14.5644 24H0ZM5.26172 18.916C5.27714 18.7223 5.32552 18.5336 5.4043 18.3598C5.17182 18.1646 4.97986 17.9163 4.84138 17.6318C4.7029 17.3473 4.62112 17.0331 4.60156 16.7106H4.55859C4.45678 16.7096 4.35678 16.6806 4.26758 16.6262C4.12136 16.5241 4.00897 16.3722 3.94726 16.1934C3.80078 15.8168 3.68359 14.8298 4.05469 14.5485L3.98633 14.5009V14.3905C3.9707 14.1935 3.9668 13.9576 3.96484 13.7001C3.94336 12.7694 3.92578 12.1374 3.25195 11.9037L2.96289 11.8063L3.1582 11.5444C3.65681 10.8457 4.22265 10.2092 4.8457 9.64632C5.40494 9.11696 6.07744 8.75553 6.79883 8.59663C7.13486 8.53608 7.47876 8.55737 7.80662 8.65904C8.13447 8.7607 8.4384 8.9403 8.69726 9.18532C8.88481 9.35382 9.05569 9.5439 9.20703 9.75237C10.6621 9.9082 11.4258 11.144 11.3555 12.6093C11.3356 13.3722 11.0566 14.0988 10.5742 14.6437C10.6598 14.6466 10.7438 14.6702 10.8203 14.713C11.0996 14.8796 11.1094 15.2432 11.0352 15.5462C10.9629 15.7994 10.8691 16.0938 10.7832 16.3405C10.6758 16.6738 10.5215 16.7366 10.2207 16.6998C10.2051 17.5244 9.86133 17.9291 9.39844 18.4139L9.49218 18.8295C9.20117 20.4008 6.09961 20.5717 5.26172 18.9182V18.916ZM22.8008 3.23131H16.0977C15.8394 3.23413 15.5925 3.34905 15.4099 3.55138C15.2273 3.75372 15.1236 4.02733 15.1211 4.31347V9.12039C15.1236 9.40652 15.2273 9.68014 15.4099 9.88247C15.5925 10.0848 15.8394 10.1997 16.0977 10.2025H17.0742C17.1068 10.2048 17.1387 10.2141 17.168 10.23C17.1974 10.2458 17.2236 10.268 17.2452 10.2951C17.2668 10.3223 17.2833 10.3539 17.2939 10.3881C17.3044 10.4224 17.3088 10.4586 17.3066 10.4947L17.4316 11.486L19.3984 10.2805C19.4215 10.255 19.449 10.2348 19.4791 10.221C19.5093 10.2073 19.5416 10.2003 19.5742 10.2004H23.0254C23.2836 10.1976 23.5305 10.0826 23.7131 9.88031C23.8957 9.67798 23.9994 9.40436 24.0019 9.11823V4.32862C23.9994 4.04248 23.8957 3.76887 23.7131 3.56653C23.5305 3.3642 23.2836 3.24928 23.0254 3.24646L22.8008 3.23131ZM19.5586 5.84363C19.6717 5.84577 19.7817 5.88476 19.875 5.95573C19.9682 6.0267 20.0405 6.12651 20.0829 6.24273C20.1253 6.35894 20.1359 6.48641 20.1134 6.60924C20.0908 6.73208 20.0361 6.84484 19.9562 6.93348C19.8762 7.02211 19.7744 7.08269 19.6636 7.10767C19.5527 7.13265 19.4377 7.12092 19.3328 7.07395C19.2279 7.02697 19.1379 6.94682 19.0738 6.8435C19.0098 6.74018 18.9746 6.61825 18.9727 6.49292C18.9713 6.40725 18.9856 6.32217 19.0146 6.24273C19.0435 6.16329 19.0866 6.09113 19.1413 6.03054C19.196 5.96995 19.2611 5.92218 19.3328 5.89007C19.4045 5.85796 19.4813 5.84217 19.5586 5.84363ZM21.6465 5.84363C21.7596 5.84577 21.8696 5.88476 21.9628 5.95573C22.0561 6.0267 22.1284 6.12651 22.1708 6.24273C22.2132 6.35894 22.2238 6.48641 22.2012 6.60924C22.1787 6.73208 22.124 6.84484 22.044 6.93348C21.9641 7.02211 21.8623 7.08269 21.7514 7.10767C21.6406 7.13265 21.5256 7.12092 21.4207 7.07395C21.3158 7.02697 21.2257 6.94682 21.1617 6.8435C21.0977 6.74018 21.0625 6.61825 21.0605 6.49292C21.0592 6.40725 21.0735 6.32217 21.1025 6.24273C21.1314 6.16329 21.1745 6.09113 21.2292 6.03054C21.2839 5.96995 21.349 5.92218 21.4207 5.89007C21.4924 5.85796 21.5692 5.84217 21.6465 5.84363ZM17.4687 5.84363C17.5818 5.84577 17.6919 5.88476 17.7851 5.95573C17.8784 6.0267 17.9507 6.12651 17.9931 6.24273C18.0355 6.35894 18.0461 6.48641 18.0235 6.60924C18.001 6.73208 17.9463 6.84484 17.8663 6.93348C17.7863 7.02211 17.6846 7.08269 17.5737 7.10767C17.4629 7.13265 17.3478 7.12092 17.243 7.07395C17.1381 7.02697 17.048 6.94682 16.984 6.8435C16.9199 6.74018 16.8847 6.61825 16.8828 6.49292C16.8815 6.40725 16.8957 6.32217 16.9247 6.24273C16.9537 6.16329 16.9968 6.09113 17.0515 6.03054C17.1062 5.96995 17.1713 5.92218 17.243 5.89007C17.3146 5.85796 17.3914 5.84217 17.4687 5.84363ZM14.1484 19.6021L14.1797 19.5892L14.1621 19.6086H14.1523L14.1484 19.6021ZM14.7969 18.6325V19.2277L14.5332 19.8532L14.5488 19.8662L14.5801 19.8922L14.5957 19.9051L14.6191 19.9268L14.6348 19.9419L14.6504 19.9549L14.6738 19.9766L14.6953 19.996L14.7109 20.0112L14.7246 20.0263L14.7402 20.0415L14.7539 20.0545L14.7695 20.0696L14.7832 20.0848L14.7969 20.0999L14.8164 20.1216L14.8301 20.1367L14.8437 20.1519L14.8574 20.1692L14.8691 20.1865L14.8828 20.2016L14.8945 20.2168L14.9082 20.2341L14.9199 20.2514L14.9414 20.2817L14.9531 20.299L14.9648 20.3164L14.9785 20.3358L14.9902 20.3532L15.0019 20.3726L15.0273 20.4094L15.0391 20.4289L15.0605 20.4635L15.0723 20.483V20.5025L15.0918 20.5393V20.5609L15.1113 20.5999V20.6215V20.6432L15.123 20.6648V20.6865V20.7103L15.2344 20.7774V20.799L15.2519 20.8401V20.8639L15.2617 20.8877L15.2812 20.9375V20.9635L15.2988 21.0133L16.2187 21.8032L18.0898 20.18L17.5039 19.1541V18.613C18.0629 18.5898 18.6193 18.5175 19.168 18.3966C19.5579 18.3145 19.9215 18.1204 20.2227 17.8339C20.0353 17.7301 19.8693 17.5847 19.7349 17.4067C19.6004 17.2287 19.5006 17.022 19.4414 16.7994C19.1074 15.7172 19.4238 14.9229 19.2754 13.7434C19.0801 12.1612 18.1191 11.6007 17.1855 11.8366C16.1641 10.7544 13.9141 11.2955 13.3418 13.1352C13.0859 14.068 13.2559 14.5377 13.2266 15.477C13.1855 16.7409 12.8867 17.466 12.25 17.7343C12.5071 18.055 12.841 18.2884 13.2129 18.4074C13.7345 18.5456 14.2684 18.6182 14.8047 18.6239L14.7969 18.6325Z" fill="#585B71"/>
</g>
<defs>
<clipPath id="clip0_39_63">
<rect width="24" height="24" fill="white"/>
</clipPath>
</defs>
</svg>
