<svg width="16" height="20" viewBox="0 0 16 20" fill="none" xmlns="http://www.w3.org/2000/svg">
<path d="M8 20C8.75336 20 9.41291 19.5779 9.75378 18.9584C10.0201 18.4746 9.55229 18 9 18H7C6.44772 18 5.98007 18.4742 6.24484 18.9589C6.33541 19.1247 6.4498 19.2782 6.58579 19.4142C6.96086 19.7893 7.46957 20 8 20ZM14 14V9C14 5.93 12.36 3.36 9.5 2.68V1.5C9.5 0.947715 9.05228 0.5 8.5 0.5H7.5C6.94772 0.5 6.5 0.947715 6.5 1.5V2.68C3.63 3.36 2 5.92 2 9V14L0.207106 15.7929C0.0744982 15.9255 0 16.1054 0 16.2929C0 16.6834 0.316583 17 0.707107 17H15.2929C15.6834 17 16 16.6834 16 16.2929C16 16.1054 15.9255 15.9255 15.7929 15.7929L14 14Z" fill="#CFE3FF"/>
</svg>
