<svg width="24" height="24" viewBox="0 0 24 24" fill="none" xmlns="http://www.w3.org/2000/svg">
<path d="M0 5.86667V11.7333H2.18666H4.35999L4.03999 11.0933C3.09333 9.25334 5.05332 7.42667 6.91999 8.42667C7.94665 8.97334 8.27999 10.08 7.73332 11.1333C7.58665 11.4267 7.46665 11.68 7.46665 11.6933C7.46665 11.72 8.42665 11.7333 9.59998 11.7333H11.7333V9.48C11.7333 7.6 11.7733 7.18667 11.9466 7.01334C12.2133 6.74667 12.2133 6.74667 12.68 7.06667C13.88 7.92 14.9466 7.61334 15.3333 6.28C15.7466 4.82667 13.9733 3.64 12.8266 4.6C11.9066 5.37334 11.7333 5 11.7333 2.21334V4.76837e-06H5.86666H0V5.86667Z" fill="#585B71"/>
<path d="M12.2666 2.18665V4.35998L12.9066 4.03998C14.7066 3.11998 16.5199 4.98664 15.6133 6.82664C14.9866 8.09331 13.9466 8.30664 12.3733 7.49331C12.3066 7.46665 12.2666 8.41331 12.2666 9.58665V11.7333H14.5199C16.3999 11.7333 16.8133 11.7733 16.9866 11.9466C17.2533 12.2133 17.2533 12.2133 16.9333 12.68C16.0799 13.88 16.3866 14.9466 17.7199 15.3333C19.1733 15.7466 20.3599 13.9733 19.3999 12.8266C18.6266 11.9066 18.9999 11.7333 21.7866 11.7333H23.9999V5.86664V-2.19345e-05H18.1333H12.2666V2.18665Z" fill="#585B71"/>
<path d="M5.37332 8.68C4.33333 8.98667 3.90666 10.3467 4.59999 11.1733C5.37332 12.0933 4.99999 12.2667 2.21333 12.2667H0V18.1333V24H5.86666H11.7333V21.8133V19.64L11.1066 19.96C9.25332 20.9067 7.42665 18.9467 8.42665 17.08C8.97332 16.0533 10.08 15.72 11.1333 16.2667C11.4266 16.4133 11.68 16.5333 11.6933 16.5333C11.72 16.5333 11.7333 15.5733 11.7333 14.4V12.2667H9.63998C8.47999 12.2667 7.39999 12.2267 7.23999 12.1867C6.79999 12.0667 6.75999 11.7467 7.11999 11.2133C7.58665 10.5467 7.65332 10.12 7.41332 9.54667C7.26665 9.18667 7.05332 8.98667 6.63999 8.8C5.99999 8.50667 5.97332 8.50667 5.37332 8.68Z" fill="#585B71"/>
<path d="M12.2667 14.36C12.2667 15.52 12.2267 16.6 12.1867 16.76C12.0667 17.2 11.7734 17.2267 11.2267 16.8667C10.5334 16.4133 10.1201 16.3467 9.54674 16.5867C8.86674 16.8667 8.45341 17.76 8.66674 18.52C8.97341 19.6533 10.3067 20.1333 11.1734 19.4C12.0934 18.6267 12.2667 19 12.2667 21.7867V24H18.1334H24V18.1333V12.2667H21.8134H19.6401L19.9601 12.8933C20.6534 14.2533 19.8401 15.6933 18.3067 15.8267C16.6267 15.9867 15.4267 14.2133 16.2667 12.8267C16.4134 12.5867 16.5334 12.36 16.5334 12.3333C16.5334 12.2933 15.5734 12.2667 14.4001 12.2667H12.2667V14.36Z" fill="#585B71"/>
</svg>
