<svg width="15" height="15" viewBox="0 0 15 15" fill="none" xmlns="http://www.w3.org/2000/svg">
<path d="M9.7625 13.1994C9.58839 13.3735 9.38167 13.5117 9.15417 13.6059C8.92666 13.7002 8.68282 13.7487 8.43656 13.7487C8.19031 13.7487 7.94646 13.7002 7.71896 13.6059C7.49145 13.5117 7.28474 13.3735 7.11062 13.1994L1.90875 8.1225C1.53125 7.78 1.25 7.26875 1.25 6.71875V3.75C1.25 3.25272 1.44754 2.77581 1.79917 2.42417C2.15081 2.07254 2.62772 1.875 3.125 1.875H6.09375C6.64375 1.875 7.155 2.15687 7.4975 2.53375L12.5431 7.76688C12.8946 8.11849 13.0921 8.59532 13.0921 9.0925C13.0921 9.58968 12.8946 10.0665 12.5431 10.4181L9.76188 13.1994H9.7625ZM9.32 12.7575L12.1012 9.97625C12.3356 9.74184 12.4672 9.42396 12.4672 9.0925C12.4672 8.76104 12.3356 8.44316 12.1012 8.20875L6.945 2.865C6.735 2.62313 6.43875 2.5 6.09375 2.5L3.10812 2.48313C2.41875 2.48313 1.875 3.05938 1.875 3.75V6.71875C1.875 7.06375 1.99813 7.36 2.24 7.57L7.5525 12.7575C7.78691 12.9918 8.10479 13.1235 8.43625 13.1235C8.76771 13.1235 9.08559 12.9918 9.32 12.7575ZM4.0625 3.125C4.4769 3.125 4.87433 3.28962 5.16735 3.58265C5.46038 3.87567 5.625 4.2731 5.625 4.6875C5.625 5.1019 5.46038 5.49933 5.16735 5.79235C4.87433 6.08538 4.4769 6.25 4.0625 6.25C3.6481 6.25 3.25067 6.08538 2.95765 5.79235C2.66462 5.49933 2.5 5.1019 2.5 4.6875C2.5 4.2731 2.66462 3.87567 2.95765 3.58265C3.25067 3.28962 3.6481 3.125 4.0625 3.125ZM4.0625 3.75C3.81386 3.75 3.5754 3.84877 3.39959 4.02459C3.22377 4.2004 3.125 4.43886 3.125 4.6875C3.125 4.93614 3.22377 5.1746 3.39959 5.35041C3.5754 5.52623 3.81386 5.625 4.0625 5.625C4.31114 5.625 4.5496 5.52623 4.72541 5.35041C4.90123 5.1746 5 4.93614 5 4.6875C5 4.43886 4.90123 4.2004 4.72541 4.02459C4.5496 3.84877 4.31114 3.75 4.0625 3.75Z" fill="white"/>
</svg>
