<svg width="21" height="21" viewBox="0 0 21 21" fill="none" xmlns="http://www.w3.org/2000/svg">
<path d="M17.6567 5.5042L11.5339 2.64251C11.2013 2.48705 10.8386 2.40645 10.4715 2.40637C10.1043 2.4063 9.74164 2.48675 9.40897 2.64207L3.3439 5.4727C3.17078 5.55348 3.02429 5.68198 2.92165 5.8431C2.819 6.00423 2.76445 6.1913 2.7644 6.38234C2.76436 6.57339 2.81882 6.76048 2.92139 6.92165C3.02396 7.08283 3.17038 7.2114 3.34347 7.29226L9.46628 10.1539C9.79886 10.3095 10.1615 10.3902 10.5286 10.3903C10.8958 10.3905 11.2585 10.3101 11.5912 10.1548L17.6563 7.32376C17.8294 7.24298 17.9759 7.11448 18.0785 6.95336C18.1812 6.79223 18.2357 6.60516 18.2358 6.41412C18.2358 6.22307 18.1814 6.03598 18.0788 5.87481C17.9762 5.71363 17.8298 5.58506 17.6567 5.5042V5.5042Z" stroke="white" stroke-width="0.4375" stroke-linecap="round" stroke-linejoin="round"/>
<path d="M5.78688 8.43411L3.34388 9.57424C3.17064 9.65497 3.02403 9.78347 2.9213 9.94464C2.81856 10.1058 2.76396 10.293 2.76392 10.4841C2.76387 10.6752 2.81838 10.8624 2.92104 11.0236C3.0237 11.1849 3.17024 11.3134 3.34345 11.3942L9.46626 14.2555C9.79884 14.411 10.1615 14.4917 10.5286 14.4918C10.8958 14.492 11.2585 14.4116 11.5912 14.2564L17.6563 11.4257C17.8294 11.345 17.9759 11.2165 18.0785 11.0553C18.1812 10.8942 18.2357 10.7071 18.2358 10.5161C18.2358 10.3251 18.1813 10.138 18.0788 9.97678C17.9762 9.81561 17.8298 9.68704 17.6567 9.60618L15.2133 8.4643" stroke="white" stroke-width="0.4375" stroke-linecap="round" stroke-linejoin="round"/>
<path d="M5.78688 12.5361L3.34388 13.6763C3.17064 13.757 3.02403 13.8855 2.9213 14.0467C2.81856 14.2078 2.76396 14.395 2.76392 14.5861C2.76387 14.7773 2.81838 14.9644 2.92104 15.1256C3.0237 15.2869 3.17024 15.4154 3.34345 15.4963L9.46626 18.3575C9.79887 18.513 10.1615 18.5936 10.5287 18.5936C10.8958 18.5937 11.2585 18.5133 11.5912 18.3579L17.6563 15.5273C17.8294 15.4465 17.9759 15.318 18.0785 15.1569C18.1812 14.9958 18.2357 14.8087 18.2358 14.6177C18.2358 14.4266 18.1813 14.2395 18.0788 14.0784C17.9762 13.9172 17.8298 13.7886 17.6567 13.7078L15.2133 12.5659" stroke="white" stroke-width="0.4375" stroke-linecap="round" stroke-linejoin="round"/>
</svg>
