<svg width="66" height="66" viewBox="0 0 66 66" fill="none" xmlns="http://www.w3.org/2000/svg">
<path d="M31.2472 1.73251L29.5972 3.23813L27.9266 2.47501C25.2866 1.25813 25.596 1.155 24.441 3.50626L23.4097 5.58938L22.6879 5.48626C22.296 5.42438 21.2647 5.34188 20.4191 5.32125L18.8722 5.25938L18.666 7.46626C18.5422 8.68313 18.4185 9.71438 18.3566 9.75563C18.2947 9.8175 17.3254 10.1063 16.191 10.4363C15.0566 10.7456 14.1079 11.0138 14.0666 11.0344C14.0254 11.0756 14.2522 12.045 14.541 13.2C14.8297 14.355 15.0566 15.3863 15.0154 15.4894C14.9741 15.5925 14.1491 16.2525 13.1591 16.9744L11.3854 18.2738L12.5816 20.0063C13.2622 20.9756 13.7985 21.8831 13.7985 22.0275C13.8191 22.1719 13.2622 23.1206 12.5816 24.1106L11.3647 25.9463L13.2004 27.2456C14.2316 27.9675 15.0566 28.6481 15.0566 28.7513C15.0566 28.875 14.8297 29.865 14.541 30.9375C14.2522 32.01 14.0254 32.9588 14.0254 33.0206C14.0254 33.1031 14.9741 33.4125 16.1497 33.7219C17.3047 34.0519 18.2947 34.3406 18.336 34.3613C18.3772 34.4025 18.5216 35.4338 18.6454 36.6506L18.8722 38.8781L20.7285 38.8163C21.7597 38.7956 22.7704 38.7131 23.0179 38.6719C23.3685 38.5894 23.5954 38.8988 24.441 40.6313C24.9979 41.7656 25.5341 42.6938 25.6166 42.6938C25.6991 42.6938 26.586 42.3225 27.5554 41.8688C28.5454 41.415 29.4529 41.0438 29.5766 41.0438C29.7004 41.0438 30.5254 41.7656 31.3916 42.6319L33.0004 44.2406L34.6297 42.6113C36.4654 40.7963 36.1766 40.8375 38.6929 41.9925C39.5385 42.3844 40.3016 42.6938 40.3841 42.6938C40.4666 42.6938 41.0029 41.7656 41.5597 40.6313C42.5497 38.61 42.591 38.5688 43.2098 38.6719C43.5397 38.7131 44.571 38.7956 45.4785 38.8163L47.1285 38.8781L47.3554 36.6506C47.4791 35.4338 47.6235 34.4025 47.6647 34.3819C47.706 34.3406 48.6754 34.0519 49.8097 33.7425C50.9441 33.4125 51.8929 33.1444 51.9341 33.1031C51.9754 33.0825 51.7485 32.1131 51.4598 30.9788C51.171 29.8444 50.9441 28.8131 50.9441 28.7306C50.9441 28.6275 51.7691 27.9675 52.8004 27.2456L54.636 25.9463L53.4191 24.1106C52.7385 23.1206 52.1816 22.1925 52.1816 22.0688C52.1816 21.945 52.7179 21.0375 53.3985 20.0475L54.6154 18.2325L52.7798 16.9125C51.7691 16.1906 50.9441 15.51 50.9441 15.4069C50.9441 15.3244 51.171 14.2931 51.4598 13.1588C51.7485 12.0244 51.9754 11.0756 51.9341 11.0344C51.8929 11.0138 50.9441 10.7456 49.8097 10.4363C48.6754 10.1063 47.706 9.8175 47.6441 9.75563C47.5823 9.71438 47.4585 8.68313 47.3348 7.46626L47.1285 5.25938L45.5816 5.32125C44.736 5.34188 43.7048 5.42438 43.2922 5.48626L42.5497 5.58938L41.5597 3.52688C41.0029 2.37188 40.4872 1.44376 40.4254 1.44376C40.3429 1.44376 39.3941 1.85625 38.3422 2.35125L36.4035 3.23813L34.7535 1.73251C33.846 0.886879 33.0622 0.206253 33.0004 0.206253C32.9385 0.206253 32.1547 0.886879 31.2472 1.73251ZM37.4966 8.72438C43.2098 10.7456 47.0254 16.0875 47.0254 22.0688C47.0254 28.2975 42.8179 33.8869 36.8366 35.6194C35.6197 35.97 34.6916 36.0938 33.1035 36.0938C29.0816 36.0938 26.0497 34.8769 23.286 32.175C20.5635 29.4938 19.2022 26.4619 19.0372 22.7906C18.9135 20.0888 19.3054 18.1913 20.5222 15.7163C22.131 12.4575 25.3072 9.735 28.6691 8.68313C30.5872 8.085 30.7729 8.06438 33.516 8.14688C35.5579 8.18813 36.2591 8.29126 37.4966 8.72438Z" fill="url(#paint0_angular_103_20)"/>
<path d="M29.8032 10.4981C24.6676 11.9625 21.0376 16.7269 21.0376 21.9656C21.0376 23.9456 21.3676 25.4719 22.1513 27.0394C22.6876 28.1325 22.8732 28.3594 23.3063 28.3594C23.987 28.3594 24.0695 27.72 23.5332 26.6269C22.9557 25.5131 22.4813 23.4506 22.4813 22.0687C22.4813 18.2119 24.812 14.4375 28.2563 12.705C30.1126 11.7769 31.6595 11.4675 33.722 11.6119C36.1145 11.7562 37.8263 12.4781 40.1157 14.3137C40.9407 14.9944 41.4976 14.8912 41.6213 14.0662C41.7451 13.2206 38.3832 11.055 35.9495 10.4156C34.382 10.0031 31.3707 10.0444 29.8032 10.4981Z" fill="url(#paint1_angular_103_20)"/>
<path d="M31.0203 16.2113C30.5253 16.83 29.8653 17.3456 29.1434 17.655L28.0503 18.15V19.4494C28.0503 20.1919 28.1534 20.8519 28.2978 20.9963C28.669 21.3675 29.6797 21.285 30.7109 20.8313C31.2059 20.6044 31.639 20.4187 31.6803 20.4187C31.7215 20.4187 31.7628 22.6256 31.7628 25.3069C31.7628 28.0706 31.8453 30.36 31.969 30.525C32.1134 30.7725 32.5259 30.8137 33.8459 30.7725C34.774 30.7519 35.6609 30.6281 35.8053 30.5044C36.0322 30.3187 36.094 28.875 36.094 23.0794V15.9019L35.6403 15.5925C35.3103 15.3656 34.6915 15.2625 33.4953 15.2625H31.804L31.0203 16.2113Z" fill="url(#paint2_angular_103_20)"/>
<path d="M43.23 44.3644C42.5906 45.7256 41.9925 46.8188 41.8687 46.8188C41.745 46.8188 40.755 46.4063 39.6619 45.8906C38.5687 45.375 37.6612 44.9831 37.62 45.0244C37.5994 45.045 38.7131 48.2625 40.1156 52.1606L42.6731 59.235L42.0131 60.2456C41.6419 60.8025 41.3119 61.2563 41.25 61.2563C41.1881 61.2563 39.9094 57.8119 38.3831 53.6044L35.6194 45.9525L34.8356 46.7569L34.0312 47.5406L37.2487 56.4094C39.0225 61.2769 40.5281 65.4019 40.6106 65.5463C40.7137 65.7319 41.5594 64.5975 43.1887 62.1019C44.5294 60.0394 45.6431 58.3688 45.6844 58.3688C45.705 58.3688 47.5612 58.9256 49.8094 59.6063C52.0575 60.2869 53.955 60.8438 54.0581 60.8438C54.1612 60.8438 53.8725 59.8538 53.4394 58.6163C50.5312 50.4488 47.5612 42.3638 47.4581 42.2606C47.3962 42.1781 46.6744 42.075 45.8494 42.0338L44.385 41.9306L43.23 44.3644Z" fill="url(#paint3_angular_103_20)"/>
<path d="M18.4592 42.3225C16.9123 46.4475 11.7973 60.7613 11.8592 60.8231C11.9004 60.8644 13.6948 60.3694 15.8192 59.73C17.9436 59.07 19.8411 58.5131 20.0267 58.4513C20.2742 58.3894 20.9961 59.3381 22.7905 62.1019C24.4198 64.5975 25.2861 65.7319 25.3892 65.5463C25.7398 64.9069 31.7623 48.0769 31.7623 47.7263C31.7623 47.4994 31.1642 46.7363 30.4423 46.0144C28.9367 44.5294 29.2255 44.5294 26.2761 45.9113C25.183 46.4063 24.2136 46.8188 24.1105 46.8188C24.0073 46.8188 23.5742 46.1175 23.1823 45.2513C22.7698 44.4056 22.4192 43.725 22.378 43.7663C22.3161 43.8075 20.1298 49.83 17.6961 56.5538C17.5311 56.9869 17.2629 57.1725 16.3554 57.4406C15.7367 57.6263 15.1798 57.75 15.1386 57.7088C15.0973 57.6675 16.2523 54.3263 17.7167 50.3044C19.1604 46.2825 20.4186 42.7969 20.5011 42.5288C20.6455 42.0956 20.6042 42.075 19.5936 42.075C18.9542 42.075 18.5211 42.1781 18.4592 42.3225Z" fill="url(#paint4_angular_103_20)"/>
<defs>
<radialGradient id="paint0_angular_103_20" cx="0" cy="0" r="1" gradientUnits="userSpaceOnUse" gradientTransform="translate(33.0004 22.2234) rotate(-90) scale(22.0172 21.6356)">
<stop stop-color="#FBC771"/>
<stop offset="1" stop-color="#FF9F00"/>
</radialGradient>
<radialGradient id="paint1_angular_103_20" cx="0" cy="0" r="1" gradientUnits="userSpaceOnUse" gradientTransform="translate(31.3311 19.2449) rotate(-90) scale(9.1145 10.2935)">
<stop stop-color="#FBC771"/>
<stop offset="1" stop-color="#FF9F00"/>
</radialGradient>
<radialGradient id="paint2_angular_103_20" cx="0" cy="0" r="1" gradientUnits="userSpaceOnUse" gradientTransform="translate(32.0722 23.0245) rotate(-90) scale(7.76197 4.02187)">
<stop stop-color="#FBC771"/>
<stop offset="1" stop-color="#FF9F00"/>
</radialGradient>
<radialGradient id="paint3_angular_103_20" cx="0" cy="0" r="1" gradientUnits="userSpaceOnUse" gradientTransform="translate(44.0552 53.7482) rotate(-90) scale(11.8176 10.0239)">
<stop stop-color="#FBC771"/>
<stop offset="1" stop-color="#FF9F00"/>
</radialGradient>
<radialGradient id="paint4_angular_103_20" cx="0" cy="0" r="1" gradientUnits="userSpaceOnUse" gradientTransform="translate(21.8105 53.8204) rotate(-90) scale(11.7454 9.95184)">
<stop stop-color="#FBC771"/>
<stop offset="1" stop-color="#FF9F00"/>
</radialGradient>
</defs>
</svg>
