<svg width="21" height="21" viewBox="0 0 21 21" fill="none" xmlns="http://www.w3.org/2000/svg">
<path d="M9.94219 5.69291C9.69609 5.75033 9.40078 5.87338 9.28594 5.96361L9.06445 6.12768L9.03984 7.98978L9.02344 9.85189L8.71172 9.78627C8.18672 9.67143 7.37461 9.73705 6.52148 9.95033C6.07031 10.0652 5.54531 10.1718 5.35664 10.1964C5.02852 10.2374 5.00391 10.221 4.86445 9.94213C4.65937 9.54018 4.34766 9.3351 3.88008 9.29408C3.4125 9.25307 3.04336 9.44994 2.78906 9.8601C2.64141 10.1062 2.625 10.2785 2.625 12.0421C2.625 14.1093 2.66602 14.3472 3.06797 14.6589C3.4125 14.9296 3.86367 14.9706 4.30664 14.7738C4.61016 14.6343 4.7168 14.5359 4.84805 14.2242L5.02031 13.8386L5.97187 13.896C7.15312 13.9699 8.73633 14.3636 10.1719 14.9378C11.2793 15.389 11.8289 15.4874 12.3457 15.348C13.125 15.1429 15.8074 13.4531 17.1035 12.3703C17.9484 11.6566 18.375 11.148 18.375 10.8527C18.375 10.5574 18.1125 10.3277 17.6859 10.2456C17.4727 10.2046 17.1855 10.0816 17.0461 9.96674C16.7262 9.69603 16.4637 9.63861 16.0699 9.75346C15.5285 9.91752 15.2578 9.66322 15.2578 8.99057C15.2578 8.42455 14.9297 8.24408 13.6008 8.08002L13.2152 8.0308V7.11205C13.2152 6.22611 13.207 6.1851 13.0102 6.01283C12.8871 5.91439 12.6574 5.79135 12.4852 5.74213C12.0094 5.59447 10.4508 5.56166 9.94219 5.69291ZM12.5344 6.11127C12.723 6.1851 12.8789 6.28354 12.8789 6.31635C12.8789 6.4476 12.1898 6.64447 11.5418 6.69369C10.7789 6.75111 9.83555 6.62807 9.52383 6.42299L9.32695 6.29174L9.54844 6.17689C9.92578 5.98002 10.4262 5.91439 11.3203 5.939C11.8863 5.96361 12.2965 6.02104 12.5344 6.11127ZM11.1152 7.00541C11.8863 7.00541 12.2801 6.9726 12.5344 6.87416C12.8625 6.75111 12.8789 6.75111 12.8789 6.89877C12.8789 7.15307 12.3621 7.31713 11.4023 7.35814C10.1965 7.41557 9.35977 7.20228 9.35156 6.84135C9.35156 6.77572 9.46641 6.78393 9.7043 6.87416C9.95039 6.9726 10.3441 7.00541 11.1152 7.00541ZM11.1152 7.72728C11.7797 7.72728 12.2309 7.68627 12.4934 7.60424C12.8543 7.48939 12.8871 7.48939 12.8625 7.61244C12.7395 8.24408 9.49102 8.24408 9.36797 7.61244C9.34336 7.48939 9.37617 7.48939 9.73711 7.60424C9.99961 7.68627 10.4508 7.72728 11.1152 7.72728ZM10.0078 8.35893C10.2129 8.40814 10.5738 8.44916 10.8117 8.44916C11.2219 8.44916 11.2383 8.45736 11.1398 8.61322C11.066 8.72807 10.943 8.77728 10.7461 8.77728C10.3523 8.77728 9.49922 8.5476 9.41719 8.42455C9.31055 8.26049 9.34336 8.18666 9.49922 8.23588C9.57305 8.26049 9.80273 8.31791 10.0078 8.35893ZM14.3719 8.53939C14.5852 8.58861 14.7984 8.67885 14.8559 8.74447C14.9297 8.83471 14.8887 8.88393 14.6344 8.99877C14.1832 9.20385 12.2391 9.20385 11.7961 9.00697C11.6238 8.93314 11.4844 8.8265 11.4844 8.77728C11.4844 8.45736 13.3793 8.3015 14.3719 8.53939ZM10.6066 9.14643C11.0004 9.18744 11.0742 9.22846 11.0742 9.35971C11.0742 9.50736 11.0332 9.51557 10.6477 9.46635C9.76992 9.36791 9.35156 9.20385 9.35156 8.98236C9.35156 8.90033 9.42539 8.90033 9.74531 8.98236C9.95859 9.04799 10.3441 9.11361 10.6066 9.14643ZM11.952 9.39252C12.5426 9.54838 13.8551 9.54838 14.4375 9.40072C14.9297 9.26947 15.0117 9.28588 14.8805 9.49916C14.7492 9.71244 14.0766 9.84369 13.166 9.84369C12.0914 9.85189 11.4105 9.64682 11.4023 9.32689C11.4023 9.25307 11.4023 9.25307 11.952 9.39252ZM4.33945 9.81088L4.59375 10.0242V12.0339C4.59375 13.3136 4.56094 14.1011 4.50352 14.2078C4.38047 14.4292 3.92109 14.6097 3.60937 14.5523C3.46992 14.5195 3.26484 14.3882 3.1582 14.257L2.95312 14.0109V12.116C2.96133 10.0816 2.98594 9.92572 3.37148 9.71244C3.69141 9.54018 4.06055 9.57299 4.33945 9.81088ZM10.0078 9.75346C10.2129 9.80268 10.5328 9.84369 10.7297 9.84369C11.025 9.84369 11.0742 9.8683 11.0742 10.016C11.0742 10.1882 11.0496 10.1964 10.5492 10.1472C9.93398 10.0898 9.35156 9.8765 9.35156 9.70424C9.35156 9.63041 9.40078 9.6058 9.49922 9.63041C9.57305 9.65502 9.80273 9.71244 10.0078 9.75346ZM11.7961 10.0898C12.0012 10.1554 11.993 10.1554 11.7141 10.1636C11.4844 10.1718 11.4023 10.139 11.4023 10.0406C11.4023 9.97494 11.4434 9.94213 11.4926 9.96674C11.5418 9.99955 11.6812 10.057 11.7961 10.0898ZM9.26133 10.3195C9.86836 10.5328 9.92578 10.541 11.4434 10.5163C13.1742 10.4917 13.691 10.5656 13.9371 10.8773C14.134 11.1316 14.0766 11.3531 13.7484 11.6074C13.2809 11.9601 12.7066 12.0749 11.2383 12.1078C9.76992 12.1324 9.40898 12.198 9.36797 12.4195C9.33516 12.5589 9.37617 12.5671 9.81914 12.5097C10.0816 12.4687 10.8117 12.4359 11.4434 12.4359C13.1824 12.4195 14.093 12.0749 14.3555 11.3449C14.4621 11.0331 14.5441 10.9593 15.225 10.582C16.2996 9.98314 16.4227 9.95033 16.6852 10.1144C16.8 10.1964 16.8984 10.2867 16.8984 10.3195C16.8984 10.3605 16.7508 10.4753 16.5621 10.5738C16.3816 10.6804 15.791 11.0578 15.2578 11.4105C14.7164 11.7632 14.1258 12.1324 13.9453 12.2226C13.5844 12.4031 13.5434 12.6081 13.8715 12.5671C14.0766 12.5507 14.5441 12.2718 16.193 11.2136C17.0133 10.6804 17.2184 10.582 17.5137 10.582C18.252 10.582 18.1863 10.9511 17.3086 11.7386C15.9961 12.9117 14.6016 13.855 12.8133 14.782C11.993 15.2085 11.7305 15.2003 10.4754 14.6917C8.67891 13.9781 7.3418 13.6417 5.97187 13.5679L5.00391 13.5105V12.0503V10.5902L5.31562 10.541C5.47969 10.5163 6.07852 10.3851 6.64453 10.2538C7.85859 9.96674 8.33437 9.97494 9.26133 10.3195ZM14.9133 10.1472C14.8969 10.221 14.7328 10.3359 14.5359 10.4015C14.2324 10.4999 14.1504 10.4999 13.8797 10.3933L13.5762 10.2703L13.9863 10.2128C14.216 10.18 14.4703 10.1226 14.5605 10.0816C14.823 9.97494 14.9461 9.99955 14.9133 10.1472Z" fill="white"/>
<path d="M3.42077 13.1086C3.2321 13.3136 3.2485 13.6664 3.44538 13.8632C3.65866 14.0765 3.86374 14.0683 4.13444 13.855C4.37233 13.6664 4.40515 13.4121 4.21647 13.1414C4.06061 12.9117 3.60944 12.8953 3.42077 13.1086ZM4.00319 13.4613C4.0278 13.6007 3.81452 13.732 3.68327 13.65C3.64225 13.6254 3.60944 13.5351 3.60944 13.4449C3.60944 13.3218 3.65866 13.2808 3.78991 13.3054C3.89655 13.3218 3.98679 13.3875 4.00319 13.4613Z" fill="white"/>
<path d="M10.7461 12.887C10.7461 13.0347 11.107 13.1249 11.7387 13.1249C12.3129 13.1249 12.6328 13.0429 12.6328 12.887C12.6328 12.7722 12.5016 12.7558 11.6895 12.7558C10.8773 12.7558 10.7461 12.7722 10.7461 12.887Z" fill="white"/>
</svg>
