<svg width="22" height="22" viewBox="0 0 22 22" fill="none" xmlns="http://www.w3.org/2000/svg">
<path d="M21.1835 10.8359L11.5296 1.18907C11.4601 1.11942 11.3776 1.06417 11.2867 1.02647C11.1958 0.988766 11.0984 0.96936 11 0.96936C10.9016 0.96936 10.8041 0.988766 10.7132 1.02647C10.6223 1.06417 10.5398 1.11942 10.4703 1.18907L0.816357 10.8359C0.535107 11.1172 0.375732 11.4992 0.375732 11.8977C0.375732 12.725 1.04839 13.3977 1.87573 13.3977H2.89292V20.2813C2.89292 20.6961 3.22808 21.0313 3.64292 21.0313H9.49995V15.7813H12.125V21.0313H18.357C18.7718 21.0313 19.107 20.6961 19.107 20.2813V13.3977H20.1242C20.5226 13.3977 20.9046 13.2406 21.1859 12.957C21.7695 12.3711 21.7695 11.4219 21.1835 10.8359Z" fill="#585B71"/>
</svg>
