<svg width="15" height="21" viewBox="0 0 15 21" fill="none" xmlns="http://www.w3.org/2000/svg">
<path d="M5.83771 11.4408L6.47191 9.34077L4.80976 8.20257H6.86566L7.52191 5.44737L8.13406 8.20257H10.19L8.54986 9.34077L9.18406 11.4408L7.49986 10.1503L5.83771 11.4408ZM3.88996 18.1996V13.3654C3.26346 12.9132 2.76051 12.2717 2.38111 11.4408C2.00171 10.6092 1.81201 9.77057 1.81201 8.92497C1.81201 7.34997 2.36641 6.00842 3.47521 4.90032C4.58331 3.79152 5.92486 3.23712 7.49986 3.23712C9.07486 3.23712 10.4164 3.79152 11.5245 4.90032C12.6333 6.00842 13.1877 7.34997 13.1877 8.92497C13.1877 9.78527 13.0127 10.6274 12.6627 11.4513C12.3127 12.2752 11.7877 12.9206 11.0877 13.3875V18.1996L7.49986 17.7187L3.88996 18.1996ZM7.49986 14.175C8.95796 14.175 10.1977 13.6647 11.219 12.6441C12.2396 11.6228 12.7499 10.3831 12.7499 8.92497C12.7499 7.46687 12.2396 6.22717 11.219 5.20587C10.1977 4.18527 8.95796 3.67497 7.49986 3.67497C6.04176 3.67497 4.80206 4.18527 3.78076 5.20587C2.76016 6.22717 2.24986 7.46687 2.24986 8.92497C2.24986 10.3831 2.76016 11.6228 3.78076 12.6441C4.80206 13.6647 6.04176 14.175 7.49986 14.175ZM4.32781 18.0033L7.49986 17.1937L10.6499 18.0033V13.5849C10.1977 13.9349 9.70171 14.1935 9.16201 14.3608C8.62231 14.5288 8.06826 14.6128 7.49986 14.6128C6.93146 14.6128 6.37356 14.5327 5.82616 14.3724C5.27946 14.2114 4.78001 13.9489 4.32781 13.5849V18.0033Z" fill="white"/>
</svg>
