<!DOCTYPE svg PUBLIC "-//W3C//DTD SVG 1.1//EN" "http://www.w3.org/Graphics/SVG/1.1/DTD/svg11.dtd">
<!-- Uploaded to: SVG Repo, www.svgrepo.com, Transformed by: SVG Repo Mixer Tools -->
<svg fill="#224bc3" height="800px" width="800px" version="1.1" id="Layer_1" xmlns="http://www.w3.org/2000/svg" xmlns:xlink="http://www.w3.org/1999/xlink" viewBox="0 0 512 512" xml:space="preserve" transform="matrix(1, 0, 0, -1, 0, 0)rotate(0)">
<g id="SVGRepo_bgCarrier" stroke-width="0"/>
<g id="SVGRepo_iconCarrier"> <g> <g> <g> <path d="M426.667,0H85.333C38.202,0,0,38.202,0,85.333v341.333C0,473.798,38.202,512,85.333,512h341.333 C473.798,512,512,473.798,512,426.667V85.333C512,38.202,473.798,0,426.667,0z M469.333,426.667 c0,23.567-19.099,42.667-42.667,42.667H85.333c-23.567,0-42.667-19.099-42.667-42.667V85.333 c0-23.567,19.099-42.667,42.667-42.667h341.333c23.567,0,42.667,19.099,42.667,42.667V426.667z"/> <path d="M394.976,237.707l-213.333-128c-14.219-8.532-32.309,1.711-32.309,18.293v256c0,16.582,18.09,26.825,32.309,18.293 l213.333-128C408.786,266.007,408.786,245.993,394.976,237.707z M192,346.321V165.679L342.535,256L192,346.321z"/> </g> </g> </g> </g>
</svg>