<svg width="66" height="66" viewBox="0 0 66 66" fill="none" xmlns="http://www.w3.org/2000/svg">
<path d="M31.2468 1.73251L29.5968 3.23813L27.9261 2.47501C25.2861 1.25813 25.5955 1.155 24.4405 3.50626L23.4093 5.58938L22.6874 5.48626C22.2955 5.42438 21.2643 5.34188 20.4186 5.32125L18.8718 5.25938L18.6655 7.46626C18.5418 8.68313 18.418 9.71438 18.3561 9.75563C18.2943 9.8175 17.3249 10.1063 16.1905 10.4363C15.0561 10.7456 14.1074 11.0138 14.0661 11.0344C14.0249 11.0756 14.2518 12.045 14.5405 13.2C14.8293 14.355 15.0561 15.3863 15.0149 15.4894C14.9736 15.5925 14.1486 16.2525 13.1586 16.9744L11.3849 18.2738L12.5811 20.0063C13.2618 20.9756 13.798 21.8831 13.798 22.0275C13.8186 22.1719 13.2618 23.1206 12.5811 24.1106L11.3643 25.9463L13.1999 27.2456C14.2311 27.9675 15.0561 28.6481 15.0561 28.7513C15.0561 28.875 14.8293 29.865 14.5405 30.9375C14.2518 32.01 14.0249 32.9588 14.0249 33.0206C14.0249 33.1031 14.9736 33.4125 16.1493 33.7219C17.3043 34.0519 18.2943 34.3406 18.3355 34.3613C18.3768 34.4025 18.5211 35.4338 18.6449 36.6506L18.8718 38.8781L20.728 38.8163C21.7593 38.7956 22.7699 38.7131 23.0174 38.6719C23.368 38.5894 23.5949 38.8988 24.4405 40.6313C24.9974 41.7656 25.5336 42.6938 25.6161 42.6938C25.6986 42.6938 26.5855 42.3225 27.5549 41.8688C28.5449 41.415 29.4524 41.0438 29.5761 41.0438C29.6999 41.0438 30.5249 41.7656 31.3911 42.6319L32.9999 44.2406L34.6293 42.6113C36.4649 40.7963 36.1761 40.8375 38.6924 41.9925C39.538 42.3844 40.3011 42.6938 40.3836 42.6938C40.4661 42.6938 41.0024 41.7656 41.5593 40.6313C42.5493 38.61 42.5905 38.5688 43.2093 38.6719C43.5393 38.7131 44.5705 38.7956 45.478 38.8163L47.128 38.8781L47.3549 36.6506C47.4786 35.4338 47.623 34.4025 47.6643 34.3819C47.7055 34.3406 48.6749 34.0519 49.8093 33.7425C50.9436 33.4125 51.8924 33.1444 51.9336 33.1031C51.9749 33.0825 51.748 32.1131 51.4593 30.9788C51.1705 29.8444 50.9436 28.8131 50.9436 28.7306C50.9436 28.6275 51.7686 27.9675 52.7999 27.2456L54.6355 25.9463L53.4186 24.1106C52.738 23.1206 52.1811 22.1925 52.1811 22.0688C52.1811 21.945 52.7174 21.0375 53.398 20.0475L54.6149 18.2325L52.7793 16.9125C51.7686 16.1906 50.9436 15.51 50.9436 15.4069C50.9436 15.3244 51.1705 14.2931 51.4593 13.1588C51.748 12.0244 51.9749 11.0756 51.9336 11.0344C51.8924 11.0138 50.9436 10.7456 49.8093 10.4363C48.6749 10.1063 47.7055 9.8175 47.6436 9.75563C47.5818 9.71438 47.458 8.68313 47.3343 7.46626L47.128 5.25938L45.5811 5.32125C44.7355 5.34188 43.7043 5.42438 43.2918 5.48626L42.5493 5.58938L41.5593 3.52688C41.0024 2.37188 40.4868 1.44376 40.4249 1.44376C40.3424 1.44376 39.3936 1.85625 38.3418 2.35125L36.403 3.23813L34.753 1.73251C33.8455 0.886879 33.0618 0.206253 32.9999 0.206253C32.938 0.206253 32.1543 0.886879 31.2468 1.73251ZM37.4961 8.72438C43.2093 10.7456 47.0249 16.0875 47.0249 22.0688C47.0249 28.2975 42.8174 33.8869 36.8361 35.6194C35.6193 35.97 34.6911 36.0938 33.103 36.0938C29.0811 36.0938 26.0493 34.8769 23.2855 32.175C20.563 29.4938 19.2018 26.4619 19.0368 22.7906C18.913 20.0888 19.3049 18.1913 20.5218 15.7163C22.1305 12.4575 25.3068 9.735 28.6686 8.68313C30.5868 8.085 30.7724 8.06438 33.5155 8.14688C35.5574 8.18813 36.2586 8.29126 37.4961 8.72438Z" fill="url(#paint0_angular_103_27)"/>
<path d="M29.803 10.4981C24.6674 11.9625 21.0374 16.7269 21.0374 21.9656C21.0374 23.9456 21.3674 25.4719 22.1511 27.0394C22.6874 28.1325 22.873 28.3594 23.3061 28.3594C23.9867 28.3594 24.0692 27.72 23.533 26.6269C22.9555 25.5131 22.4811 23.4506 22.4811 22.0687C22.4811 18.2119 24.8117 14.4375 28.2561 12.705C30.1124 11.7769 31.6592 11.4675 33.7217 11.6119C36.1142 11.7562 37.8261 12.4781 40.1155 14.3137C40.9405 14.9944 41.4974 14.8912 41.6211 14.0662C41.7449 13.2206 38.383 11.055 35.9492 10.4156C34.3817 10.0031 31.3705 10.0444 29.803 10.4981Z" fill="url(#paint1_angular_103_27)"/>
<path d="M43.23 44.3644C42.5906 45.7256 41.9925 46.8188 41.8688 46.8188C41.745 46.8188 40.755 46.4063 39.6619 45.8906C38.5688 45.375 37.6613 44.9831 37.62 45.0244C37.5994 45.045 38.7131 48.2625 40.1156 52.1606L42.6731 59.235L42.0131 60.2456C41.6419 60.8025 41.3119 61.2563 41.25 61.2563C41.1881 61.2563 39.9094 57.8119 38.3831 53.6044L35.6194 45.9525L34.8356 46.7569L34.0312 47.5406L37.2488 56.4094C39.0225 61.2769 40.5281 65.4019 40.6106 65.5463C40.7138 65.7319 41.5594 64.5975 43.1888 62.1019C44.5294 60.0394 45.6431 58.3688 45.6844 58.3688C45.705 58.3688 47.5613 58.9256 49.8094 59.6063C52.0575 60.2869 53.955 60.8438 54.0581 60.8438C54.1613 60.8438 53.8725 59.8538 53.4394 58.6163C50.5312 50.4488 47.5613 42.3638 47.4581 42.2606C47.3963 42.1781 46.6744 42.075 45.8494 42.0338L44.385 41.9306L43.23 44.3644Z" fill="url(#paint2_angular_103_27)"/>
<path d="M18.4592 42.3225C16.9123 46.4475 11.7973 60.7613 11.8592 60.8231C11.9004 60.8644 13.6948 60.3694 15.8192 59.73C17.9436 59.07 19.8411 58.5131 20.0267 58.4513C20.2742 58.3894 20.9961 59.3381 22.7904 62.1019C24.4198 64.5975 25.2861 65.7319 25.3892 65.5463C25.7398 64.9069 31.7623 48.0769 31.7623 47.7263C31.7623 47.4994 31.1642 46.7363 30.4423 46.0144C28.9367 44.5294 29.2255 44.5294 26.2761 45.9113C25.1829 46.4063 24.2136 46.8188 24.1104 46.8188C24.0073 46.8188 23.5742 46.1175 23.1823 45.2513C22.7698 44.4056 22.4192 43.725 22.3779 43.7663C22.3161 43.8075 20.1298 49.83 17.6961 56.5538C17.5311 56.9869 17.2629 57.1725 16.3554 57.4406C15.7367 57.6263 15.1798 57.75 15.1386 57.7088C15.0973 57.6675 16.2523 54.3263 17.7167 50.3044C19.1604 46.2825 20.4186 42.7969 20.5011 42.5288C20.6454 42.0956 20.6042 42.075 19.5936 42.075C18.9542 42.075 18.5211 42.1781 18.4592 42.3225Z" fill="url(#paint3_angular_103_27)"/>
<path d="M29.4594 29.2875C28.5702 29.2875 27.8494 28.5666 27.8494 27.6774C27.8494 26.9576 28.1704 26.2753 28.7251 25.8165L33.0953 22.2013C33.4432 21.9129 33.7408 21.6428 33.988 21.3911C34.2397 21.1347 34.432 20.8715 34.5648 20.6014C34.7021 20.3314 34.7708 20.0315 34.7708 19.7019C34.7708 19.3403 34.6929 19.0313 34.5373 18.775C34.3862 18.5186 34.1757 18.3218 33.9056 18.1844C33.6355 18.0425 33.3242 17.9716 32.9717 17.9716C32.6193 17.9716 32.308 18.0425 32.0379 18.1844C31.7724 18.3264 31.5664 18.5346 31.4199 18.8093C31.1505 19.3145 30.7361 19.8118 30.1635 19.8118H29.3875C28.3863 19.8118 27.5235 18.9728 27.8654 18.0318C27.965 17.7579 28.0901 17.4998 28.2408 17.2575C28.6848 16.5434 29.3119 15.994 30.1222 15.6095C30.9324 15.225 31.8823 15.0327 32.9717 15.0327C34.0978 15.0327 35.0729 15.2136 35.8969 15.5752C36.7254 15.9322 37.364 16.4358 37.8126 17.0858C38.2658 17.7358 38.4924 18.498 38.4924 19.3723C38.4924 19.9125 38.3802 20.4504 38.1559 20.986C37.9316 21.517 37.5288 22.1052 36.9474 22.7506C36.3661 23.3961 35.5398 24.1651 34.4686 25.0578L33.1503 26.1564V26.2388H37.0175C37.9155 26.2388 38.6434 26.9668 38.6434 27.8648C38.6434 28.6505 38.0065 29.2875 37.2207 29.2875H29.4594Z" fill="url(#paint4_angular_103_27)"/>
<defs>
<radialGradient id="paint0_angular_103_27" cx="0" cy="0" r="1" gradientUnits="userSpaceOnUse" gradientTransform="translate(32.9999 22.2234) rotate(-90) scale(22.0172 21.6356)">
<stop stop-color="#D1E4FF"/>
<stop offset="1" stop-color="#9EC7FF"/>
</radialGradient>
<radialGradient id="paint1_angular_103_27" cx="0" cy="0" r="1" gradientUnits="userSpaceOnUse" gradientTransform="translate(31.3309 19.2449) rotate(-90) scale(9.1145 10.2935)">
<stop stop-color="#D1E4FF"/>
<stop offset="1" stop-color="#9EC7FF"/>
</radialGradient>
<radialGradient id="paint2_angular_103_27" cx="0" cy="0" r="1" gradientUnits="userSpaceOnUse" gradientTransform="translate(44.0552 53.7482) rotate(-90) scale(11.8176 10.0239)">
<stop stop-color="#D1E4FF"/>
<stop offset="1" stop-color="#9EC7FF"/>
</radialGradient>
<radialGradient id="paint3_angular_103_27" cx="0" cy="0" r="1" gradientUnits="userSpaceOnUse" gradientTransform="translate(21.8105 53.8204) rotate(-90) scale(11.7454 9.95184)">
<stop stop-color="#D1E4FF"/>
<stop offset="1" stop-color="#9EC7FF"/>
</radialGradient>
<radialGradient id="paint4_angular_103_27" cx="0" cy="0" r="1" gradientUnits="userSpaceOnUse" gradientTransform="translate(33.1091 22.1601) rotate(90) scale(7.12738 5.53436)">
<stop stop-color="#D1E4FF"/>
<stop offset="1" stop-color="#9EC7FF"/>
</radialGradient>
</defs>
</svg>
